<?xml version="1.0" encoding="utf-8"?>
<!-- Generator: Adobe Illustrator 21.1.0, SVG Export Plug-In . SVG Version: 6.00 Build 0)  -->
<svg version="1.1" id="S_Alert_24_N_2x" xmlns="http://www.w3.org/2000/svg" xmlns:xlink="http://www.w3.org/1999/xlink" x="0px"
	 y="0px" viewBox="0 0 24 24" style="enable-background:new 0 0 24 24;" xml:space="preserve">
<style type="text/css">
	.st0{fill:#FF13DC;fill-opacity:0;}
	.st1{fill:#E44853;}
</style>
<title>S_Alert_24_N@2x</title>
<rect id="Canvas" class="st0" width="24" height="24"/>
<path class="st1" d="M22.2,19.5L12.9,2.6c-0.3-0.5-0.9-0.7-1.4-0.4c-0.2,0.1-0.3,0.2-0.4,0.4L1.8,19.5c-0.3,0.5-0.1,1.1,0.4,1.4
	C2.4,21,2.5,21,2.7,21h18.6c0.6,0,1-0.4,1-1C22.3,19.8,22.3,19.7,22.2,19.5z M12,19.5c-0.8,0-1.5-0.7-1.5-1.5s0.7-1.5,1.5-1.5
	s1.5,0.7,1.5,1.5S12.8,19.5,12,19.5z M10.8,14.5v-7C10.8,7.2,11,7,11.3,7h1.4c0.3,0,0.5,0.2,0.5,0.5v7c0,0.3-0.2,0.5-0.5,0.5h-1.4
	C11,15,10.8,14.8,10.8,14.5z"/>
</svg>
