<svg id="S_FolderOpen_18_N" xmlns="http://www.w3.org/2000/svg" width="18" height="18" viewBox="0 0 18 18">
  <defs>
    <style>
      .cls-1 {
        fill: #8e8e8e;
        fill-rule: evenodd;
      }

      
    </style>
  </defs>
  <title>S_FolderOpen_18_N</title>
  <path class="cls-1" d="M6,3L7.2,4.6,7.5,5H15V7H3V3H6ZM6.25,2H2.5a0.5,0.5,0,0,0-.5.5V7H0.288a0.25,0.25,0,0,0-.247.285L1.9,14.623A0.5,0.5,0,0,0,2.389,15H15.611a0.5,0.5,0,0,0,.485-0.377l1.864-7.338A0.25,0.25,0,0,0,17.712,7H16V4.5A0.5,0.5,0,0,0,15.5,4H8L6.65,2.2A0.5,0.5,0,0,0,6.25,2h0Z" transform="translate(0)"/>
  </svg>